<?xml version="1.0" encoding="UTF-8" standalone="no"?>
<!-- Created with Inkscape (http://www.inkscape.org/) -->

<svg
   xmlns:dc="http://purl.org/dc/elements/1.1/"
   xmlns:cc="http://creativecommons.org/ns#"
   xmlns:rdf="http://www.w3.org/1999/02/22-rdf-syntax-ns#"
   xmlns:svg="http://www.w3.org/2000/svg"
   xmlns="http://www.w3.org/2000/svg"
   xmlns:sodipodi="http://sodipodi.sourceforge.net/DTD/sodipodi-0.dtd"
   xmlns:inkscape="http://www.inkscape.org/namespaces/inkscape"
   width="397.98975"
   height="77.465561"
   id="svg2"
   version="1.1"
   inkscape:version="0.48.5 r10040"
   sodipodi:docname="New document 1">
  <defs
     id="defs4" />
  <sodipodi:namedview
     id="base"
     pagecolor="#ffffff"
     bordercolor="#666666"
     borderopacity="1.0"
     inkscape:pageopacity="0.0"
     inkscape:pageshadow="2"
     inkscape:zoom="2.8284271"
     inkscape:cx="35.476251"
     inkscape:cy="34.302082"
     inkscape:document-units="px"
     inkscape:current-layer="layer1"
     showgrid="false"
     fit-margin-top="0"
     fit-margin-left="0"
     fit-margin-right="0"
     fit-margin-bottom="0"
     inkscape:window-width="1920"
     inkscape:window-height="1031"
     inkscape:window-x="1920"
     inkscape:window-y="0"
     inkscape:window-maximized="1" />
  <metadata
     id="metadata7">
    <rdf:RDF>
      <cc:Work
         rdf:about="">
        <dc:format>image/svg+xml</dc:format>
        <dc:type
           rdf:resource="http://purl.org/dc/dcmitype/StillImage" />
        <dc:title></dc:title>
      </cc:Work>
    </rdf:RDF>
  </metadata>
  <g
     inkscape:label="Layer 1"
     inkscape:groupmode="layer"
     id="layer1"
     transform="translate(-154.7167,-135.44156)">
    <path
       style="fill:#000000"
       d="m 515.13859,140.79242 c 2.26685,0.63495 -2.65869,18.40978 -0.57548,15.5514 5.90623,-8.10395 6.39544,-10.03104 17.08208,-14.54787 2.59158,-1.09536 5.61196,-2.37666 6.71196,-2.84734 1.1,-0.47068 4.22979,-1.57073 6.9551,-2.44457 4.29938,-1.37854 5.14455,-1.39933 6.38674,-0.15714 2.29728,2.29728 0.68298,4.25566 -5.02053,6.09063 -10.33023,3.3235 -10.18133,1.31442 -16.82131,7.12207 -14.41311,12.60641 -17.64585,20.94493 -18.90464,47.37403 l -0.59536,13.5 -2.5,0 c -2.40892,0 -2.53643,-0.32982 -3.5,-9.05269 l -1,-9.05269 -6.5,2.33623 c -20.02794,7.19844 -40.72005,-3.08976 -28.16682,-15.49505 l 3.79046,-2.74579 -3.32346,-2.20669 -3.32346,-2.2067 -2.62963,4.21169 c -1.4463,2.31643 -3.16299,5.68823 -4.50084,6.88358 l -1.87121,2.6719 5.92738,7.8281 c 10.12962,13.37786 11.27239,13.32811 18.21003,13.32811 3.96717,0 5.18624,1.39378 3.71724,4.25 -1.26229,2.4543 -7.14072,2.26194 -12.6697,-0.4146 -5.3436,-2.58679 -8.28757,-4.6035 -13.91714,-13.16959 l -4.50354,-5.85269 -2.988,4.59344 c -3.06602,4.71339 -4.71387,5.5484 -6.5599,3.32408 -1.33156,-1.60444 1.7522,-24.04626 4.73629,-34.46798 2.57544,-8.99451 2.57389,-9.03213 -0.22936,-5.58939 -7.13207,8.75909 -16.18495,25.40591 -20.0271,36.82673 -2.31133,6.87046 -3.80383,8.3776 -6.54748,6.61171 -1.13883,-0.73298 0.42163,-3.16929 2.07969,-15.41974 l 3.45593,-25.53395 -3.07969,2.25732 c -1.69383,1.24153 -5.21719,3.47494 -7.82969,4.96314 -2.6125,1.48821 -4.75243,3.02436 -4.75539,3.41367 -0.017,2.2266 -4.79878,27.08197 -5.39614,28.04852 -0.93606,1.51457 -3.27955,1.48437 -4.23064,-0.0545 -0.41262,-0.66762 -0.63702,-4.83012 -0.49868,-9.25 0.13834,-4.41988 -0.11313,-9.01782 -0.55881,-10.21764 l -0.81034,-2.18153 -4.5,2.1815 c -4.08617,1.98088 -4.47168,2.47374 -4.19202,5.35933 1.04762,10.80983 -7.24154,20.22282 -21.04399,23.89712 -6.6457,1.76913 -31.92151,1.73201 -40.11677,-0.0589 l 0,1e-5 c -8.45418,-1.8475 -11.07517,-4.11463 -11.45367,-9.90729 -0.34898,-5.34084 1.17729,-8.34566 9.03514,-17.78783 2.89069,-3.47351 5.63606,-5.82092 6.80777,-5.82092 1.07994,0 1.96354,-0.35632 1.96354,-0.79181 0,-0.4355 -1.8,-5.19877 -4,-10.58504 -2.2,-5.38627 -4,-10.65213 -4,-11.70191 0,-1.12028 1.75552,-3.11626 4.25,-4.83211 2.3375,-1.60788 5.48001,-4.1832 6.98335,-5.72293 2.03101,-2.08018 3.02354,-2.50931 3.86274,-1.67011 0.83921,0.83921 2.70637,0.54027 7.26666,-1.16342 8.18633,-3.05835 19.47756,-4.97281 24.15432,-4.09545 4.67219,0.87651 9.48293,5.45138 9.48293,9.01798 0,5.38222 -4.78476,12.63455 -10.99283,16.66201 l -2.49283,1.61721 3.03814,0.66729 c 1.89294,0.41576 4.42248,0.0889 6.71071,-0.86721 7.48108,-3.1258 16.28617,-1.46544 20.47605,3.86113 2.69825,3.43027 4.73949,1.94186 3.95623,-2.88478 -0.32928,-2.02912 -1.12556,-4.32416 -1.76952,-5.10008 -1.36747,-1.64769 -10.09189,-1.92751 -12.91925,-0.41436 -2.45714,1.31503 -5.0067,0.25699 -5.0067,-2.07772 0,-2.7436 5.08541,-4.91869 11.5,-4.91869 7.83667,0 10.94099,1.87615 13.22201,7.99093 l 1.87145,5.01685 10.75966,-7.00389 c 5.91781,-3.85214 10.92714,3.99611 11.13184,3.99611 0.2047,0 1.01909,0.64691 1.80975,1.43757 1.2501,1.2501 2.03548,0.56544 6.02232,-5.25 5.18917,-7.56922 15.19936,-18.18757 17.14589,-18.18757 0.71071,0 1.85651,0.67997 2.54624,1.51104 1.02565,1.23583 0.78746,2.5563 -1.30781,7.25 -1.40903,3.15643 -2.70712,7.12864 -3.29323,8.701 l -0.73137,2.96204 3.91162,-3.05715 c 5.36832,-4.19564 12.73725,-8.36693 14.78087,-8.36693 2.29688,0 3.22161,2.82425 1.71476,5.23711 -0.85186,1.36403 -0.87674,1.75283 -0.0807,1.26085 1.43408,-0.88631 11.00295,-3.07351 16.99671,-3.88501 5.12902,-0.69443 7.35631,0.2846 6.84062,3.00688 -0.26372,1.39219 -1.65183,2.10067 -5.34839,2.72977 -14.0414,2.38962 -24.45167,7.36475 -23.17176,11.07393 0.59216,1.71606 14.36622,1.16043 22.67953,-0.91487 4.125,-1.02975 9.75482,-2.57965 10.65877,-2.51825 1.27435,0.0866 1.16117,-19.34698 2.18046,-20.59421 m -203.63863,45.4635 c 1.20264,-2.17957 5.10379,-23.0224 4.87543,-23.25076 -0.22836,-0.22836 -4.36739,7.59512 -6.11126,10.28639 -4.12421,6.36473 -13.22799,15.43226 -17.55592,17.48599 -1.87612,0.89027 -5.05357,1.61868 -7.06102,1.61868 -3.26157,0 -3.81383,-0.39241 -5.19094,-3.68826 l -1.54106,-3.68825 -3.15792,3.67621 c -4.16085,4.84375 -9.37635,7.0313 -12.72109,5.33563 -1.75527,-0.88985 -3.20497,-0.95068 -5.18324,-0.21747 -4.08897,1.5155 -6.01977,-0.94965 -6.55659,-8.37115 -0.42687,-5.90142 -0.46682,-5.9721 -2.13673,-3.78028 -0.93595,1.22846 -2.2825,4.93357 -2.99232,8.23357 -0.70983,3.3 -1.7456,6.5625 -2.30172,7.25 -1.72411,2.13143 -3.82352,1.38409 -4.91607,-1.75 -1.21411,-3.48279 -0.95213,-3.40206 -5.23413,-1.61293 -6.56678,2.74378 -10.70716,1.94721 -15.59196,0.62521 l -4.17494,-2.12989 -8.99927,3.11574 c -13.32524,4.61348 -25.82053,5.56837 -33.07962,2.52793 -2.33984,-0.98004 -5.46165,-6.24935 -6.23617,-10.52606 -0.89324,-4.93228 1.22396,-10.11898 6.30607,-15.44854 2.38707,-2.5033 3.73707,-4.55397 3,-4.55704 -3.03878,-0.0126 -8.58955,-2.1123 -10.64386,-4.02618 -2.65226,-2.47096 -2.87492,-7.06068 -0.44628,-9.19925 4.67998,-4.12103 22.17683,-10.4109 38.04922,-13.67817 7.02239,-1.44553 16.50358,-1.38802 18.00078,0.10918 2.95446,2.95446 0.26397,7.64621 -7.04228,12.2805 -5.42324,3.43991 -9.04836,-3.05518 -3.00772,-5.36541 l 2.75,-2.05173 -2.70698,-0.0317 c -4.20554,-0.0492 -29.40659,6.68275 -35.86235,9.57992 -10.18502,4.57077 -5.96517,6.38126 19.5344,8.3811 7.68079,0.60237 15.8859,1.52569 18.23358,2.05182 2.93396,0.65751 5.62085,0.59489 8.59397,-0.2003 2.37902,-0.63629 5.47676,-0.86794 6.88387,-0.51477 3.5099,0.88093 8.1758,5.88663 10.96699,11.76567 1.28077,2.69769 2.61357,4.90488 2.96176,4.90488 1.78524,0 2.38154,-12.30519 0.81418,-16.80131 -0.99765,-2.86185 -1.47663,-3.12274 -6.24064,-3.39923 -3.89054,-0.22578 -5.2387,-0.71341 -5.47974,-1.98199 -0.42788,-2.25186 3.24574,-4.0902 8.17358,-4.0902 5.04016,0 9.08459,4.10051 10.12637,10.26677 0.39007,2.30877 1.03881,3.8171 1.44165,3.35186 1.48222,-1.71184 5.39476,-12.07998 7.64573,-20.26106 2.48905,-9.04636 4.24735,-11.74636 6.96931,-10.70185 2.203,0.84537 1.56768,6.07327 -2.04217,16.80456 -3.0545,9.08038 -5.52572,21.31699 -5.4831,27.15042 0.0386,5.28032 0.82701,3.9551 4.88818,-8.21622 1.72107,-5.15804 5.66541,-14.72054 8.76519,-21.25 4.83029,-10.17465 5.9705,-11.87175 7.97609,-11.87175 2.26599,0 2.77834,0.85626 2.39345,4 -0.30329,2.47719 -6.6113,18.98882 -11.48564,30.06436 -4.73626,10.76181 -5.48114,13.93564 -3.27063,13.93564 3.25517,0 10.84077,-10.26844 18.37101,-24.86835 2.65757,-5.15259 5.42933,-9.60163 6.15948,-9.88674 0.73015,-0.28512 2.01935,0.17341 2.86489,1.01895 1.38313,1.38313 1.13336,2.37491 -2.48991,9.88674 -5.89327,12.21807 -8.03389,21.8494 -4.85616,21.8494 2.72322,0 7.51218,-3.14144 11.82869,-7.75933 4.95217,-5.29794 14.19261,-18.98808 18.2179,-26.99067 2.67855,-5.32517 5.9776,-7.05389 7.23053,-3.78882 0.0771,0.20092 -0.033,1.64341 -0.26868,3.83276 -0.23569,2.18934 -4.03378,32.01408 -6.79751,37.33669 -1.58773,3.05777 -3.72007,7.45966 -5.00338,9.45825 -2.87479,3.0599 -4.23291,4.08366 -8.65543,6.62103 -2.58173,1.44819 -7.5199,1.59262 -8.32845,1.5707 -0.39293,-0.0106 -10.27202,0.16626 -10.76028,-0.77705 -0.63129,-1.21965 -0.33264,-4.49583 0.0198,-4.62282 1.56168,-0.5626 4.24556,0.25185 9.76821,-0.0555 6.00478,-0.33419 10.28763,-3.07983 13.76161,-7.11979 m 70.9775,6.33088 c 8.34625,-2.58202 13.49773,-7.41715 14.41428,-13.52912 0.36002,-2.40084 0.35673,-4.84712 -0.007,-5.43617 -0.36407,-0.58905 -2.62585,-1.071 -5.02619,-1.071 -3.26795,0 -5.1596,-0.66923 -7.53039,-2.66413 -3.22005,-2.70949 -3.40978,-3.96607 -1.5014,-9.94355 0.59798,-1.873 0.19086,-2.17279 -3.65651,-2.69249 -2.38117,-0.32164 -6.14686,-0.33755 -8.36819,-0.0354 -7.19857,0.97934 -8.77335,-5.0557 -1.61467,-6.18791 7.86618,-1.24406 16.80646,-6.97104 19.74089,-12.64561 4.28399,-8.28432 -4.85179,-9.99766 -22.58744,-4.23609 -4.125,1.34003 -8.07439,2.80081 -8.77643,3.24616 -3.24776,2.06027 -2.31521,21.31606 1.8016,37.20029 1.75175,6.75888 1.78522,7.56957 0.35678,8.64005 -2.64361,1.98112 -4.04561,0.50634 -6.86346,-7.21973 l -2.70227,-7.40913 -3.34538,3.54713 c -5.02256,5.32548 -8.40858,10.00715 -10.01045,13.84096 -1.95849,4.68733 -0.42259,6.06919 8.26685,7.43778 3.72502,0.58669 7.89776,1.27299 9.27276,1.52511 5.21666,0.95652 21.94156,-0.45054 28.13692,-2.36715 z m 127.21951,-16.34193 c 3.11752,-1.42725 5.88411,-3.17985 6.14799,-3.89468 0.26387,-0.71482 0.62798,-3.892 0.80911,-7.06039 0.27779,-4.85904 0.0834,-5.68821 -1.2421,-5.29749 -0.86428,0.25477 -2.92143,0.76939 -4.57143,1.14359 -12.29194,2.78767 -30.99371,12.3209 -28.68992,14.62469 4.41017,4.41017 18.43259,4.65669 27.54635,0.48428 z M 382.85715,176.99035 c 0,-0.51881 -0.99795,-1.64229 -2.21767,-2.49661 -1.99234,-1.39549 -2.37337,-1.39758 -3.75,-0.0205 -1.35884,1.35923 -1.3625,1.64017 -0.0323,2.4813 1.94439,1.22954 6,1.25377 6,0.0359 z m 11.46607,-1.74191 c 4.0832,-1.94714 4.2665,-2.58222 1.53393,-5.31479 -2.16359,-2.16359 -11,-2.92398 -11,-0.94657 0,0.89128 5.0749,7.94645 5.71607,7.94654 0.11884,2e-5 1.80634,-0.75832 3.75,-1.68518 z m 65.45493,-4.96903 5.17221,-8.65423 -3.7966,2.89311 c -5.97032,4.54955 -8.23037,7.60269 -8.26501,11.16536 -0.0174,1.7875 0.36188,3.25 0.8428,3.25 0.48092,0 3.20188,-3.89441 6.0466,-8.65424 z M 338.16376,153.04115 c -0.14205,-0.21588 -0.89855,0.13888 -1.68111,0.78834 -1.14761,0.95243 -1.20064,1.77755 -0.27416,4.26571 l 1.14866,3.08487 0.53244,-3.87321 c 0.29284,-2.13027 0.41622,-4.04984 0.27417,-4.26571 z M 187.15715,195.8822 c 2.2,-0.57216 6.33465,-2.45706 9.5,-3.02212 l 5.5,-1.98183 0.008,-6.2223 c 0.005,-3.42226 0.36763,-6.95066 0.80656,-7.84088 1.0905,-2.21171 -1.35875,-4.00683 -14.81506,-3.45298 l -11,-0.54725 -4.71819,3.54603 c -8.12635,6.10788 -10.33439,11.70372 -6.83482,17.32278 2.0022,3.21482 2.10817,3.24994 9.78881,3.24442 4.27059,-0.003 9.5647,-0.47371 11.7647,-1.04587 z m 37.64711,-4.60762 3.64711,-1.55189 -2.01773,-4.64452 c -2.8197,-6.49054 -6.52074,-11.14452 -8.86257,-11.14452 -1.65193,0 -1.8109,0.32398 -0.9491,1.93426 1.91688,3.58173 1.22935,9.52888 -1.4636,12.6602 -1.37433,1.59805 -2.49933,3.20554 -2.5,3.57221 -0.004,2.16141 6.10119,1.74635 12.14589,-0.82574 z m -13.14711,-9.82925 c 0,-1.19809 -0.2961,-2.47444 -0.65799,-2.83634 -1.35018,-1.35018 -3.34201,1.69065 -3.34201,5.10209 0,3.4692 0.0359,3.50009 2,1.72257 1.1,-0.99549 2,-2.79023 2,-3.98832 z"
       id="path2996"
       inkscape:connector-curvature="0"
       sodipodi:nodetypes="csssssssscsscsscccsscssssscssssssscsscsssscsssccssssssssssssscssssssssscsssssssscssssssssscccssssscsssssssssscsssscssssssccsssssssssssssssssssssssscssssssssccssssccscsssscssssssscssssccssssssscsccccssscsscscsscsscscssccssccscsscsssscssssss" />
  </g>
</svg>
